<?xml version="1.0" encoding="utf-8"?>
<!-- Generator: Adobe Illustrator 19.1.0, SVG Export Plug-In . SVG Version: 6.00 Build 0)  -->
<svg version="1.1" id="Layer_1" xmlns="http://www.w3.org/2000/svg" xmlns:xlink="http://www.w3.org/1999/xlink" x="0px" y="0px"
	 viewBox="0 0 46.9 46.9" style="enable-background:new 0 0 46.9 46.9;" xml:space="preserve">
<style type="text/css">
	.st0{fill:#FFFFFF;}
	.st1{fill:#263238;}
</style>
<g>
	<path id="XMLID_248_" class="st0" d="M45.6,34.5c-0.2,0-0.4,0-0.6,0c-5.8,0-10.5,4.7-10.5,10.5c0,0.2,0,0.4,0,0.6
		c-1,0.5-2.1,1-3.3,1.3c-0.1-0.1-0.3-0.3-0.4-0.4c-2-2-4.6-3.1-7.4-3.1s-5.4,1.1-7.4,3.1c-0.1,0.1-0.3,0.3-0.4,0.4
		c-1.1-0.4-2.2-0.8-3.3-1.3c0-0.2,0-0.4,0-0.6c0-5.8-4.7-10.5-10.5-10.5c-0.2,0-0.4,0-0.6,0c-0.5-1-1-2.1-1.3-3.3
		c0.1-0.1,0.3-0.3,0.4-0.4c4.1-4.1,4.1-10.7,0-14.9c-0.1-0.1-0.3-0.3-0.4-0.4c0.4-1.1,0.8-2.2,1.3-3.3c0.2,0,0.4,0,0.6,0
		c5.8,0,10.5-4.7,10.5-10.5c0-0.2,0-0.4,0-0.6c1-0.5,2.1-1,3.3-1.3c0.1,0.1,0.3,0.3,0.4,0.4c2,2,4.6,3.1,7.4,3.1s5.4-1.1,7.4-3.1
		C31,0.3,31.1,0.1,31.3,0c1.1,0.4,2.2,0.8,3.3,1.3c0,0.2,0,0.4,0,0.6c0,5.8,4.7,10.5,10.5,10.5c0.2,0,0.4,0,0.6,0
		c0.5,1,1,2.1,1.3,3.3c-0.1,0.1-0.3,0.3-0.4,0.4c-2,2-3.1,4.6-3.1,7.4s1.1,5.4,3.1,7.4c0.1,0.1,0.3,0.3,0.4,0.4
		C46.6,32.4,46.1,33.5,45.6,34.5z"/>
	<circle id="XMLID_247_" class="st1" cx="23.5" cy="23.4" r="11.1"/>
	<circle id="XMLID_200_" class="st0" cx="23.5" cy="23.4" r="6.5"/>
</g>
</svg>
